<svg width="46" height="27" viewBox="0 0 46 27" fill="none" xmlns="http://www.w3.org/2000/svg">
<path d="M28.6658 24.1163H16.4607V2.88916H28.6658V24.1163Z" fill="#757575"/>
<path d="M17.2413 13.5C17.2413 9.19397 19.3246 5.35829 22.5689 2.88642C20.1964 1.07887 17.2023 2.21925e-06 13.9482 2.21925e-06C6.24464 2.21925e-06 0 6.04406 0 13.5C0 20.9559 6.24464 27 13.9482 27C17.2023 27 20.1964 25.9211 22.5689 24.1136C19.3246 21.6417 17.2413 17.806 17.2413 13.5Z" fill="#505050"/>
<path d="M45.1242 13.5C45.1242 20.9559 38.8796 27 31.176 27C27.9219 27 24.9278 25.9211 22.5544 24.1136C25.7996 21.6417 27.8829 17.806 27.8829 13.5C27.8829 9.19397 25.7996 5.35829 22.5544 2.88642C24.9278 1.07887 27.9219 2.21925e-06 31.176 2.21925e-06C38.8796 2.21925e-06 45.1242 6.04406 45.1242 13.5Z" fill="#5F5F5F"/>
</svg>
