<svg width="52" height="17" viewBox="0 0 52 17" fill="none" xmlns="http://www.w3.org/2000/svg">
<path d="M22.7515 16.4874H18.646L21.2119 0.718294H25.3178L22.7515 16.4874ZM15.1922 0.718294L11.2782 11.5644L10.815 9.2288L10.8154 9.22964L9.434 2.13812C9.434 2.13812 9.26696 0.718294 7.48649 0.718294H1.01587L0.939941 0.985302C0.939941 0.985302 2.91867 1.39699 5.23442 2.78771L8.80128 16.4878H13.0789L19.6107 0.718294H15.1922ZM47.4841 16.4874H51.2538L47.9671 0.717873H44.6668C43.1428 0.717873 42.7716 1.89304 42.7716 1.89304L36.6486 16.4874H40.9283L41.7841 14.145H47.0032L47.4841 16.4874ZM42.9665 10.9093L45.1236 5.00813L46.3372 10.9093H42.9665ZM36.9696 4.51039L37.5555 1.12408C37.5555 1.12408 35.7476 0.436523 33.8629 0.436523C31.8255 0.436523 26.9873 1.32697 26.9873 5.65688C26.9873 9.73076 32.6658 9.78137 32.6658 11.9212C32.6658 14.0611 27.5724 13.6777 25.8915 12.3283L25.2811 15.869C25.2811 15.869 27.1143 16.7594 29.9151 16.7594C32.7168 16.7594 36.9434 15.3088 36.9434 11.3606C36.9434 7.26062 31.2139 6.87888 31.2139 5.09629C31.2143 3.31329 35.2127 3.54233 36.9696 4.51039Z" fill="#4F4F4F"/>
<path d="M10.8135 9.22959L9.43203 2.13808C9.43203 2.13808 9.265 0.718262 7.48452 0.718262H1.01391L0.937988 0.985269C0.937988 0.985269 4.04801 1.6298 7.03107 4.04467C9.88337 6.35283 10.8135 9.22959 10.8135 9.22959Z" fill="#939393"/>
</svg>
