<svg width="278" height="46" viewBox="0 0 278 46" fill="none" xmlns="http://www.w3.org/2000/svg">
<g clip-path="url(#clip0)">
<path d="M3.62298 9.82109C3.62298 7.50395 3.33271 5.86264 2.84893 5.09026C2.36514 4.31788 1.49433 3.83514 0.333252 3.64205V3.25586H12.4278V3.7386C11.2668 3.83514 10.4927 4.22133 9.91216 4.99371C9.42838 5.66955 9.13811 7.2143 9.13811 9.4349V15.6139L13.4922 12.1382C15.8143 10.2073 17.4592 8.75906 18.4268 7.69704C19.6846 6.44193 20.2651 5.47645 20.2651 4.89717C20.2651 4.41443 20.1684 4.12479 19.9749 4.02824C19.7813 3.83514 19.3943 3.7386 18.9105 3.7386V3.25586H31.1019V3.7386C29.3603 3.7386 27.7154 4.22133 25.9738 5.28336C25.49 5.573 24.0386 6.63502 21.6197 8.66252L17.8462 11.752C20.2651 14.0692 22.4905 16.676 24.3289 19.6689C26.0705 22.3723 27.6186 25.4618 28.9732 28.8409L29.9408 31.1581C30.6181 32.7994 31.1019 33.7649 31.2954 34.151C31.9727 35.2131 32.8435 35.7923 33.8111 35.9854V36.4682H22.7808V35.9854C23.9419 35.7923 24.5224 35.1165 24.5224 34.0545C24.5224 32.7994 24.0386 31.1581 23.1678 28.9375C22.4905 27.3927 21.7165 25.7514 20.7489 24.1101C19.7813 22.4688 18.8138 20.924 17.6527 19.4758C16.5884 18.0276 15.3305 16.5794 13.8792 15.0346L9.04135 18.8965V29.903C9.04135 31.8339 9.13811 33.1856 9.42838 33.9579C9.91216 35.2131 10.8797 35.9854 12.3311 36.082V36.5647H0.333252V36.082C1.7846 35.8889 2.65541 35.1165 3.1392 34.0545C3.42947 33.2821 3.62298 32.027 3.62298 30.2891V9.82109Z" fill="#FF3D00"/>
<path d="M50.3563 17.4485C50.5498 16.7726 50.8401 16.0003 51.0336 15.3244C51.2271 14.5521 51.4206 13.9728 51.4206 13.5866C51.4206 13.1038 51.3239 12.7177 51.0336 12.428C50.7433 12.1384 50.2596 11.9453 49.5823 11.9453V11.5591H57.3228V12.0418C56.3552 12.1384 55.4844 12.7177 54.9039 13.6831C54.6136 14.1659 54.2266 15.0348 53.7428 16.5795L45.9055 39.0751C44.7444 42.4543 43.3898 44.7714 41.9385 45.8334C40.6806 46.7989 39.1325 47.2816 37.1974 47.2816C36.3266 47.2816 35.4558 47.0885 34.585 46.7989C33.7141 46.5093 32.9401 46.0265 32.166 45.4472L35.0687 38.5924L35.4558 38.882C35.359 39.2682 35.2623 39.6544 35.2623 40.1371C35.2623 41.1992 35.5525 42.0681 36.0363 42.8405C36.6169 43.6128 37.2941 43.999 38.2617 43.999C39.7131 43.999 40.8741 43.3232 41.745 41.875C42.4223 40.6199 42.8093 39.2682 42.8093 37.6269C42.8093 36.5649 42.519 35.2132 42.0352 33.765C41.8417 33.1857 41.2612 31.9306 40.4871 29.9996L34.585 16.483C34.0044 15.0348 33.5206 14.1659 33.2304 13.6831C32.5531 12.7177 31.779 12.2349 30.9082 12.2349V11.5591H41.0677V12.0418C40.4871 12.1384 40.1001 12.2349 39.8098 12.5246C39.5196 12.8142 39.4228 13.1038 39.4228 13.5866C39.4228 13.9728 39.5196 14.4555 39.7131 14.9382C39.9066 15.5175 40.1001 15.9037 40.1968 16.1934L46.099 30.0962L50.3563 17.4485Z" fill="#FF3D00"/>
<path d="M79.8672 32.5099C80.3509 33.1857 80.9315 33.9581 81.4153 34.6339C82.0926 35.4063 82.8666 35.889 83.5439 35.9856V36.4683H73.0942V35.9856C74.1585 35.889 74.6423 35.4063 74.6423 34.7305C74.6423 34.2477 74.352 33.5719 73.8682 32.703C73.3845 32.0271 72.9974 31.4479 72.7072 31.0617L68.9337 25.3654L65.2569 29.9031C63.225 32.5099 62.2574 34.1512 62.2574 34.827C62.2574 35.4063 62.7412 35.7925 63.8056 35.9856V36.4683H55.9683V35.9856C56.5488 35.889 57.1293 35.5994 57.6131 35.2132C58.0969 34.827 58.871 33.9581 59.9353 32.6064L67.4823 23.3379L63.225 17.2554C61.5801 14.9382 60.6126 13.5866 60.3223 13.2969C59.4515 12.428 58.6774 12.0418 58.0002 12.0418V11.5591H68.8369V12.0418C67.6758 12.1384 67.192 12.6211 67.192 13.3935C67.192 13.7797 67.3855 14.359 67.7726 14.9382C68.0628 15.421 68.3531 16.0003 68.9337 16.6761L70.8688 19.476L73.0942 16.483C73.7715 15.5175 74.2553 14.9382 74.352 14.6486C74.7391 13.9728 74.9326 13.3935 74.9326 13.0073C74.9326 12.3315 74.4488 12.0418 73.3845 12.0418V11.5591H81.8023V12.0418C80.6412 12.1384 79.3834 12.8142 78.1255 13.9728C77.8353 14.2624 76.8677 15.421 75.3196 17.3519L71.9331 21.4069L79.8672 32.5099Z" fill="#FF3D00"/>
<path d="M104.927 21.9862H92.9293V30.1927C92.9293 32.5099 93.1228 34.1512 93.6066 34.827C94.0904 35.5994 94.8645 35.9856 95.9288 35.9856V36.4683H84.8018V35.9856C86.1564 35.9856 87.0272 35.4063 87.4142 34.1512C87.7045 33.3788 87.8012 32.0271 87.8012 30.1927V17.7381C87.8012 15.421 87.6077 13.8762 87.1239 13.1038C86.6401 12.3315 85.8661 11.9453 84.8018 11.9453V11.5591H96.0255V12.0418C94.6709 12.0418 93.8001 12.6211 93.4131 13.8762C93.1228 14.6486 93.0261 15.9037 93.0261 17.8347V19.8622H104.927V17.8347C104.927 15.5175 104.734 13.9728 104.25 13.2004C103.766 12.428 102.992 12.1384 101.928 12.1384V11.5591H113.151V12.0418C111.797 12.0418 110.926 12.6211 110.539 13.8762C110.249 14.6486 110.152 16.0003 110.152 17.8347V30.2893C110.152 32.6064 110.346 34.1512 110.829 34.9236C111.313 35.6959 112.087 36.0821 113.151 36.0821V36.5649H101.928V36.0821C103.282 36.0821 104.153 35.5028 104.54 34.2477C104.83 33.4753 104.927 32.1237 104.927 30.2893V21.9862Z" fill="#FF3D00"/>
<path d="M135.502 17.6416L123.601 28.0687V30.2893C123.601 32.6064 123.795 34.1512 124.279 34.9236C124.762 35.6959 125.536 36.0821 126.601 36.0821V36.5649H115.377V36.0821C116.732 35.9856 117.602 35.3098 117.989 34.1512C118.28 33.3788 118.376 32.1237 118.376 30.3858V17.7381C118.376 15.9037 118.28 14.6486 117.989 13.9728C117.506 12.7177 116.635 12.0418 115.28 11.9453V11.5591H126.504V12.0418C125.149 12.0418 124.279 12.6211 123.892 13.8762C123.601 14.6486 123.505 16.0003 123.505 17.8347V25.2688L135.406 14.8417C135.309 14.2624 135.212 13.8762 135.019 13.5866C134.535 12.7177 133.567 12.1384 132.309 12.0418V11.5591H143.533V12.0418C142.179 12.0418 141.308 12.6211 140.921 13.8762C140.631 14.6486 140.534 16.0003 140.534 17.8347V30.2893C140.534 32.6064 140.727 34.1512 141.211 34.9236C141.695 35.6959 142.469 36.0821 143.533 36.0821V36.5649H132.309V36.0821C133.664 35.9856 134.535 35.3098 134.922 34.1512C135.212 33.3788 135.309 32.1237 135.309 30.3858V17.6416H135.502Z" fill="#FF3D00"/>
<path d="M175.85 36.8542C175.56 36.7577 175.269 36.7577 174.882 36.7577C174.592 36.7577 174.399 36.7577 174.205 36.7577L168.109 37.0473C165.11 37.0473 162.498 36.7577 160.272 36.0819C157.66 35.3095 155.338 34.1509 153.306 32.5096C151.177 30.7718 149.532 28.5512 148.468 26.1375C147.404 23.6272 146.823 21.0205 146.823 18.124C146.823 15.8069 147.21 13.6829 148.081 11.5588C148.952 9.53132 150.209 7.79347 151.854 6.34526C153.499 4.99359 155.434 3.93157 157.563 3.35228C159.692 2.773 162.014 2.48336 164.433 2.48336L170.045 2.96609L171.689 3.15919C172.173 3.15919 172.56 3.06264 172.947 2.96609C173.238 2.773 173.528 2.57991 173.721 2.09717L176.043 11.6554L175.656 11.8485C174.786 9.72442 173.238 8.17966 171.302 7.02109C169.271 5.86252 167.045 5.28323 164.626 5.28323C162.885 5.28323 161.24 5.57288 159.982 6.05561C158.627 6.53835 157.466 7.40728 156.402 8.66239C155.338 9.91751 154.564 11.3657 153.983 12.9105C153.402 14.5518 153.112 16.1931 153.112 17.8344C153.112 22.3721 154.467 26.234 157.273 29.4201C160.175 32.7993 163.852 34.4406 168.303 34.4406C170.819 34.4406 173.044 33.7647 174.979 32.3165C176.818 30.9649 178.366 29.0339 179.527 26.5237L180.01 26.7168L175.85 36.8542Z" fill="#FF3D00"/>
<path d="M200.716 17.6416L188.815 28.0687V30.2893C188.815 32.6064 189.009 34.1512 189.493 34.9236C189.976 35.6959 190.75 36.0821 191.815 36.0821V36.5649H180.591V36.0821C181.945 35.9856 182.816 35.3098 183.203 34.1512C183.494 33.3788 183.59 32.1237 183.59 30.3858V17.7381C183.59 15.9037 183.494 14.6486 183.203 13.9728C182.72 12.7177 181.849 12.0418 180.494 11.9453V11.5591H191.718V12.0418C190.363 12.0418 189.493 12.6211 189.105 13.8762C188.815 14.6486 188.718 16.0003 188.718 17.8347V25.2688L200.62 14.8417C200.523 14.2624 200.426 13.8762 200.233 13.5866C199.749 12.7177 198.781 12.1384 197.523 12.0418V11.5591H208.747V12.0418C207.392 12.0418 206.522 12.6211 206.135 13.8762C205.844 14.6486 205.748 16.0003 205.748 17.8347V30.2893C205.748 32.6064 205.941 34.1512 206.425 34.9236C206.909 35.6959 207.683 36.0821 208.747 36.0821V36.5649H197.717V36.0821C199.071 35.9856 199.942 35.3098 200.329 34.1512C200.62 33.3788 200.716 32.1237 200.716 30.3858V17.6416Z" fill="#FF3D00"/>
<path d="M224.905 30.1927C224.905 32.1236 225.002 33.3787 225.292 34.0546C225.776 35.3097 226.744 35.889 228.195 35.889V36.3717H216.488V35.889C217.939 35.889 218.81 35.2131 219.293 33.958C219.584 33.1856 219.777 31.834 219.777 30.0961V13.8761C216.778 13.8761 214.552 14.4554 213.101 15.614C211.843 16.5795 210.682 18.4139 209.618 21.0206L209.134 20.8276L211.65 10.7866C211.843 11.0763 212.133 11.2694 212.424 11.2694C212.714 11.3659 213.101 11.3659 213.682 11.3659H214.649H230.13H231.098C231.582 11.3659 231.969 11.3659 232.356 11.2694C232.646 11.1728 232.936 10.9797 233.13 10.7866L235.645 20.8276L235.162 21.0206C234.194 18.4139 233.033 16.676 231.678 15.614C230.13 14.4554 227.905 13.8761 225.002 13.8761V30.1927H224.905Z" fill="#FF3D00"/>
<path d="M255.868 17.6416L243.967 28.0687V30.2893C243.967 32.6064 244.16 34.1512 244.644 34.9236C245.128 35.6959 245.902 36.0821 246.966 36.0821V36.5649H235.742V36.0821C237.097 35.9856 237.968 35.3098 238.355 34.1512C238.645 33.3788 238.742 32.1237 238.742 30.3858V17.7381C238.742 15.9037 238.645 14.6486 238.355 13.9728C237.871 12.7177 237 12.0418 235.646 11.9453V11.5591H246.869V12.0418C245.515 12.0418 244.644 12.6211 244.257 13.8762C243.967 14.6486 243.87 16.0003 243.87 17.8347V25.2688L255.771 14.8417C255.674 14.2624 255.577 13.8762 255.384 13.5866C254.9 12.7177 254.029 12.1384 252.675 12.0418V11.5591H263.898V12.0418C262.544 12.0418 261.673 12.6211 261.286 13.8762C260.996 14.6486 260.899 16.0003 260.899 17.8347V30.2893C260.899 32.6064 261.092 34.1512 261.576 34.9236C262.06 35.6959 262.834 36.0821 263.898 36.0821V36.5649H252.868V36.0821C254.223 35.9856 255.094 35.3098 255.481 34.1512C255.771 33.3788 255.868 32.1237 255.868 30.3858V17.6416Z" fill="#FF3D00"/>
<path d="M272.8 14.7447C270.671 14.7447 268.833 13.0069 268.833 10.8828C268.833 8.66222 270.671 7.02091 272.8 7.02091C274.929 7.02091 276.67 8.75877 276.67 10.8828C276.67 13.0069 274.929 14.7447 272.8 14.7447ZM272.8 15.5171C275.412 15.5171 277.444 13.4896 277.444 10.8828C277.444 8.27603 275.412 6.24854 272.8 6.24854C270.187 6.24854 268.156 8.27603 268.156 10.8828C268.156 13.4896 270.187 15.5171 272.8 15.5171ZM273.477 11.0759C274.348 11.0759 275.025 10.6897 275.025 9.72424C275.025 8.66222 274.154 8.37258 273.187 8.37258H270.961V13.393H271.639V11.0759H272.51L274.058 13.393H274.928L273.477 11.0759ZM271.736 10.3035V9.04841H273.09C273.671 9.04841 274.348 9.14496 274.348 9.6277C274.348 10.4001 273.284 10.3035 272.606 10.3035H271.736Z" fill="#FF3D00"/>
</g>
<defs>
<clipPath id="clip0">
<rect width="277.111" height="44.5926" fill="white" transform="translate(0.333252 0.703613)"/>
</clipPath>
</defs>
</svg>
